<svg xmlns="http://www.w3.org/2000/svg" width="64" height="64" viewBox="0 0 64 64">
  <path id="calendar" d="M6.857,64C3.071,64,0,61.312,0,58V14c0-3.313,3.071-6,6.857-6h6.857V1.5A1.622,1.622,0,0,1,15.429,0h5.714a1.622,1.622,0,0,1,1.714,1.5V8H41.143V1.5A1.622,1.622,0,0,1,42.857,0h5.714a1.622,1.622,0,0,1,1.714,1.5V8h6.857C60.929,8,64,10.688,64,14V58c0,3.313-3.071,6-6.857,6Zm0-6.749A.811.811,0,0,0,7.714,58H56.286a.811.811,0,0,0,.857-.749v-14.4L48.4,51.594l-.019-.019-.019.019L40.28,43.513l3.233-3.232,4.868,4.868,8.762-8.766V20H6.857ZM29.143,48a1.623,1.623,0,0,1-1.715-1.5v-5A1.624,1.624,0,0,1,29.143,40h5.714a1.623,1.623,0,0,1,1.714,1.5v5A1.622,1.622,0,0,1,34.857,48ZM15.429,48a1.622,1.622,0,0,1-1.714-1.5v-5A1.623,1.623,0,0,1,15.429,40h5.714a1.623,1.623,0,0,1,1.714,1.5v5A1.622,1.622,0,0,1,21.143,48ZM42.857,36a1.622,1.622,0,0,1-1.714-1.5v-5A1.623,1.623,0,0,1,42.857,28h5.714a1.623,1.623,0,0,1,1.714,1.5v5A1.622,1.622,0,0,1,48.571,36ZM29.143,36a1.623,1.623,0,0,1-1.715-1.5v-5A1.624,1.624,0,0,1,29.143,28h5.714a1.623,1.623,0,0,1,1.714,1.5v5A1.622,1.622,0,0,1,34.857,36ZM15.429,36a1.622,1.622,0,0,1-1.714-1.5v-5A1.623,1.623,0,0,1,15.429,28h5.714a1.623,1.623,0,0,1,1.714,1.5v5A1.622,1.622,0,0,1,21.143,36Z" fill="#ac9453"/>
</svg>
