<svg xmlns="http://www.w3.org/2000/svg" width="32" height="32" viewBox="0 0 32 32">
  <path id="coin_sm" d="M16,26A13,13,0,1,0,3,13,13,13,0,0,0,16,26ZM14.613,6.087V5.037A1.035,1.035,0,0,1,15.65,4h.694a1.035,1.035,0,0,1,1.038,1.037V6.1a4.927,4.927,0,0,1,2.688.962.7.7,0,0,1,.075,1.069L19.125,9.1a.7.7,0,0,1-.875.063,2.057,2.057,0,0,0-1.112-.319H14.706a1.087,1.087,0,0,0-1.019,1.144,1.129,1.129,0,0,0,.756,1.1l3.894,1.169a3.915,3.915,0,0,1,2.731,3.756,3.854,3.854,0,0,1-3.694,3.9v1.05A1.035,1.035,0,0,1,16.338,22h-.694a1.035,1.035,0,0,1-1.038-1.037V19.9a4.927,4.927,0,0,1-2.687-.963.7.7,0,0,1-.075-1.069l1.019-.969a.7.7,0,0,1,.875-.062,2.057,2.057,0,0,0,1.113.319h2.431A1.087,1.087,0,0,0,18.3,16.013a1.129,1.129,0,0,0-.756-1.1L13.65,13.744a3.915,3.915,0,0,1-2.731-3.756,3.858,3.858,0,0,1,3.694-3.9ZM30,22H27.969a15.148,15.148,0,0,1-4.562,4h3.987a.558.558,0,0,1,.6.5v1a.558.558,0,0,1-.6.5H4.6a.558.558,0,0,1-.6-.5v-1a.558.558,0,0,1,.6-.5H8.587a15.223,15.223,0,0,1-4.562-4H2a2,2,0,0,0-2,2v6a2,2,0,0,0,2,2H30a2,2,0,0,0,2-2V24A2,2,0,0,0,30,22Z" fill="#693a14"/>
</svg>
