<svg xmlns="http://www.w3.org/2000/svg" xmlns:xlink="http://www.w3.org/1999/xlink" width="64" height="64" viewBox="0 0 64 64">
  <defs>
    <clipPath id="clip-path">
      <rect id="Rectangle_32" data-name="Rectangle 32" width="64" height="64" transform="translate(-0.211)" fill="#ac9453"/>
    </clipPath>
  </defs>
  <g id="gift" transform="translate(0.211)" clip-path="url(#clip-path)">
    <path id="gift-solid" d="M4,64.679A4.31,4.31,0,0,0,8,69.25H28V46.393H4ZM36,69.25H56a4.31,4.31,0,0,0,4-4.571V46.393H36ZM60,23.536H54.738A13.891,13.891,0,0,0,56,17.821C56,10.893,51.063,5.25,45,5.25c-5.2,0-8.562,3.043-12.875,9.757C27.813,8.293,24.45,5.25,19.25,5.25c-6.063,0-11,5.643-11,12.571a13.7,13.7,0,0,0,1.262,5.714H4a4.31,4.31,0,0,0-4,4.571V39.536a2.164,2.164,0,0,0,2,2.286H62a2.164,2.164,0,0,0,2-2.286V28.107A4.31,4.31,0,0,0,60,23.536Zm-40.763,0c-2.762,0-5-2.557-5-5.714s2.237-5.714,5-5.714c2.487,0,4.325.471,10.763,11.429Zm25.763,0H34.238C40.662,12.607,42.45,12.107,45,12.107c2.763,0,5,2.557,5,5.714S47.763,23.536,45,23.536Z" transform="translate(-0.401 -5.25)" fill="#ac9453"/>
  </g>
</svg>
