<svg xmlns="http://www.w3.org/2000/svg" width="20" height="20" viewBox="0 0 20 20">
  <g id="logout" transform="translate(2602 -612)">
    <rect id="Rectangle_58" data-name="Rectangle 58" width="20" height="20" transform="translate(-2602 612)" fill="rgba(255,255,255,0)"/>
    <path id="sign-out-alt-solid" d="M19.723,72.274l-6.667,6.667a.954.954,0,0,1-1.627-.675v-3.81h-5.4A.95.95,0,0,1,5.08,73.5v-3.81a.95.95,0,0,1,.952-.952h5.4v-3.81a.955.955,0,0,1,1.627-.675l6.667,6.667A.961.961,0,0,1,19.723,72.274Zm-12.1,6.469V77.155a.478.478,0,0,0-.476-.476H3.81a1.269,1.269,0,0,1-1.27-1.27V67.789a1.269,1.269,0,0,1,1.27-1.27H7.143a.478.478,0,0,0,.476-.476V64.456a.478.478,0,0,0-.476-.476H3.81A3.811,3.811,0,0,0,0,67.789v7.619a3.811,3.811,0,0,0,3.81,3.81H7.143A.478.478,0,0,0,7.619,78.742Z" transform="translate(-2602 550.521)" fill="#222"/>
  </g>
</svg>
