<svg id="phone" xmlns="http://www.w3.org/2000/svg" width="24" height="24.265" viewBox="0 0 24 24.265">
  <rect id="Rectangle_54" data-name="Rectangle 54" width="24" height="24" transform="translate(0 0.265)" fill="rgba(255,255,255,0)"/>
  <path id="mobile-alt-solid" d="M12.481,0H2.2A2.227,2.227,0,0,0,0,2.25v19.5A2.227,2.227,0,0,0,2.2,24H12.481a2.227,2.227,0,0,0,2.2-2.25V2.25A2.227,2.227,0,0,0,12.481,0ZM7.342,22.5A1.5,1.5,0,1,1,8.81,21,1.483,1.483,0,0,1,7.342,22.5Zm5.139-5.062a.558.558,0,0,1-.551.563H2.753a.558.558,0,0,1-.551-.562V2.813a.558.558,0,0,1,.551-.562h9.178a.558.558,0,0,1,.551.563Z" transform="translate(4.65)" fill="#ac9453"/>
</svg>
