<svg xmlns="http://www.w3.org/2000/svg" width="64" height="64" viewBox="0 0 64 64">
  <path id="qa" d="M72,40A32,32,0,1,1,40,8,32,32,0,0,1,72,40ZM40.859,18.581c-7.032,0-11.517,2.962-15.039,8.227a1.551,1.551,0,0,0,.35,2.1L30.648,32.3a1.548,1.548,0,0,0,2.15-.274c2.305-2.924,3.886-4.619,7.394-4.619,2.636,0,5.9,1.7,5.9,4.253,0,1.932-1.6,2.925-4.2,4.384-3.035,1.7-7.052,3.819-7.052,9.117v.516a1.548,1.548,0,0,0,1.548,1.548h7.226a1.548,1.548,0,0,0,1.548-1.548v-.172c0-3.673,10.734-3.825,10.734-13.763C55.895,24.258,48.132,18.581,40.859,18.581Zm-.859,32a5.935,5.935,0,1,0,5.935,5.935A5.942,5.942,0,0,0,40,50.581Z" transform="translate(-8 -8)" fill="#ac9453"/>
</svg>
