<svg xmlns="http://www.w3.org/2000/svg" width="64" height="64" viewBox="0 0 64 64">
  <g id="qn" transform="translate(1582 -1684)">
    <rect id="Rectangle_34" data-name="Rectangle 34" width="64" height="64" transform="translate(-1582 1684)" fill="rgba(255,255,255,0)"/>
    <path id="file-signature-solid" d="M27.9,45.3c0-3.112,0-8.948,0-8.948L41.844,22.507V17.435H27.024a2.623,2.623,0,0,1-2.615-2.615V0H2.615A2.609,2.609,0,0,0,0,2.615v50.56a2.609,2.609,0,0,0,2.615,2.615H39.228a2.609,2.609,0,0,0,2.615-2.615V48.817L27.9,48.8S27.9,48.416,27.9,45.3ZM41.843,13.283a2.607,2.607,0,0,0-.763-1.842L30.412.763A2.613,2.613,0,0,0,28.56,0H27.9V13.948H41.843ZM31.382,37.807V45.33H38.9L56.517,27.592l-7.4-7.4ZM61.952,18.233l-3.473-3.473a2.775,2.775,0,0,0-3.924,0L51.586,17.73l7.4,7.4,2.969-2.969a2.773,2.773,0,0,0,0-3.924Z" transform="translate(-1581.304 1688.174)" fill="#ac9453"/>
  </g>
</svg>
