<svg xmlns="http://www.w3.org/2000/svg" width="64" height="64" viewBox="0 0 64 64">
  <g id="service" transform="translate(355 -997)">
    <rect id="Rectangle_33" data-name="Rectangle 33" width="64" height="64" transform="translate(-355 997)" fill="rgba(255,255,255,0)"/>
    <g id="Group_1107" data-name="Group 1107" transform="translate(-351.522 997)">
      <path id="Subtraction_8" data-name="Subtraction 8" d="M6.632,29.931l0,0A16.65,16.65,0,0,1,1.8,24.176,16.918,16.918,0,0,1,.012,17.47H.1A12.023,12.023,0,0,1,0,15.9,16.651,16.651,0,0,1,4.749,4.853a16.039,16.039,0,0,1,22.989,0,16.459,16.459,0,0,1,3.835,6.177,17.373,17.373,0,0,1,.714,3.909c.218,3.236-.421,5.594-1.952,7.208a9.952,9.952,0,0,1-5.23,2.6l-.064.014A6.658,6.658,0,0,0,19.4,21.668H13.127a6.689,6.689,0,0,0-6.5,8.26Z" transform="translate(12.075 7.918)" fill="#ac9453"/>
      <path id="Union_3" data-name="Union 3" d="M24.274,40.77v-.009H22.347a4.105,4.105,0,0,1,0-8.211H26.2a4.105,4.105,0,0,1,4.077,3.621,33.7,33.7,0,0,0,4.788-.68,12.065,12.065,0,0,0,6.369-3.2c1.865-1.985,2.642-4.885,2.377-8.866C43.095,12.661,34.7,4.545,24.273,4.545c-10.21,0-19.065,8.469-19.739,18.88a16.158,16.158,0,0,0,.076,3.113H4.55A2.281,2.281,0,0,1,0,26.319a2.251,2.251,0,0,1,.045-.45C.015,25.326,0,24.764,0,24.193a24.271,24.271,0,0,1,.493-4.876,24.015,24.015,0,0,1,3.652-8.651A24.349,24.349,0,0,1,14.825,1.9,24.211,24.211,0,0,1,19.382.491a24.6,24.6,0,0,1,9.784,0A24.283,24.283,0,0,1,41.438,7.086a24.463,24.463,0,0,1,2.964,3.58,24.04,24.04,0,0,1,4.145,13.527,21.342,21.342,0,0,1-1.342,8.227,10.778,10.778,0,0,1-4.219,5.072,19.5,19.5,0,0,1-7.39,2.567,48.152,48.152,0,0,1-4.975.547c-1.751.111-3.674.164-5.877.164Z" transform="translate(4.119)" fill="#ac9453"/>
      <path id="Subtraction_9" data-name="Subtraction 9" d="M3.9,21.866a3.9,3.9,0,0,1-1.447-.379,4.669,4.669,0,0,1-1.232-.855A3.733,3.733,0,0,1,0,18.158a17.219,17.219,0,0,1,.973-5.8A15.806,15.806,0,0,1,4.153,7.051,17.814,17.814,0,0,1,6.691,4.746,21.435,21.435,0,0,1,9.927,2.759a27.511,27.511,0,0,1,3.981-1.6A36.787,36.787,0,0,1,18.684,0c.036.448,1.126,1,2.844,1.435a28.181,28.181,0,0,0,6.717.767,28.243,28.243,0,0,0,6.687-.76C36.644,1.01,37.745.464,37.805.015A36.824,36.824,0,0,1,42.55,1.168a27.455,27.455,0,0,1,3.958,1.594,21.3,21.3,0,0,1,3.218,1.974,17.627,17.627,0,0,1,2.524,2.293,15.6,15.6,0,0,1,3.154,5.3,17.168,17.168,0,0,1,.94,5.833,3.068,3.068,0,0,1-.885,2.263A4.263,4.263,0,0,1,52.4,21.715c-.291,0-1.278.006-2.771.015-4.3.026-13.249.08-20.868.08-6.691,0-14.247.025-19.247.042H9.507C6.9,21.86,4.84,21.866,3.9,21.866Z" transform="translate(0 42.134)" fill="#ac9453"/>
    </g>
  </g>
</svg>
