<svg xmlns="http://www.w3.org/2000/svg" width="100" height="100" viewBox="0 0 100 100">
  <g id="user" transform="translate(-1258 -136)">
    <g id="Group_1128" data-name="Group 1128" transform="translate(1258 136)">
      <g id="Ellipse_7" data-name="Ellipse 7" fill="none" stroke="#ac9453" stroke-width="1">
        <circle cx="50" cy="50" r="50" stroke="none"/>
        <circle cx="50" cy="50" r="49.5" fill="none"/>
      </g>
    </g>
    <path id="user-solid" d="M26.98,30.834A15.417,15.417,0,1,0,11.563,15.417,15.416,15.416,0,0,0,26.98,30.834Zm10.792,3.854H35.761a20.967,20.967,0,0,1-17.561,0H16.188A16.192,16.192,0,0,0,0,50.877v5.011a5.783,5.783,0,0,0,5.781,5.781h42.4a5.783,5.783,0,0,0,5.781-5.781V50.877A16.192,16.192,0,0,0,37.772,34.689Z" transform="translate(1281.02 155.166)" fill="#ac9453"/>
  </g>
</svg>
