<svg xmlns="http://www.w3.org/2000/svg" width="64" height="64" viewBox="0 0 64 64">
  <g id="vip" transform="translate(1614 -1652)">
    <rect id="Rectangle_34" data-name="Rectangle 34" width="64" height="64" transform="translate(-1614 1652)" fill="rgba(255,255,255,0)"/>
    <path id="Subtraction_11" data-name="Subtraction 11" d="M52.826,64H3.522A3.3,3.3,0,0,1,0,61V3A3.3,3.3,0,0,1,3.522,0H32.87V17a3.3,3.3,0,0,0,3.522,3H56.348V61A3.3,3.3,0,0,1,52.826,64ZM41.916,36.031A2.794,2.794,0,0,0,39.5,37.422L32.9,48.869A2.784,2.784,0,0,0,35.3,53.043a2.8,2.8,0,0,0,2.413-1.391l2.662-4.612H47.3a2.782,2.782,0,0,0,1.881-4.833,2.838,2.838,0,0,0-.338-.41l-4.919-4.919a2.854,2.854,0,0,0-.481-.385c-.051-.033-.1-.062-.143-.088A2.779,2.779,0,0,0,41.916,36.031Zm-9.044,0a2.792,2.792,0,0,0-2.412,1.391L23.852,48.869a2.783,2.783,0,0,0,2.407,4.174,2.8,2.8,0,0,0,2.413-1.391L35.28,40.2a2.784,2.784,0,0,0-2.408-4.174ZM17.043,53.038h0c.058,0,.114.005.172.005a2.794,2.794,0,0,0,2.412-1.391L26.236,40.2a2.783,2.783,0,1,0-4.819-2.783L17.043,45l-4.372-7.574A2.781,2.781,0,0,0,8.87,36.4a2.782,2.782,0,0,0-1.019,3.8L14.46,51.652a2.792,2.792,0,0,0,2.412,1.391C16.929,53.043,16.987,53.041,17.043,53.038ZM10.565,16a1.1,1.1,0,0,0-1.174,1v2a1.1,1.1,0,0,0,1.174,1H22.3a1.1,1.1,0,0,0,1.174-1V17A1.1,1.1,0,0,0,22.3,16Zm0-8A1.1,1.1,0,0,0,9.392,9v2a1.1,1.1,0,0,0,1.174,1H22.3a1.1,1.1,0,0,0,1.174-1V9A1.1,1.1,0,0,0,22.3,8Zm45.783,8H37.565V0h.9a3.831,3.831,0,0,1,2.494.875L55.32,13.125a2.8,2.8,0,0,1,1.028,2.113V16Z" transform="translate(-1610.522 1652)" fill="#ac9453"/>
  </g>
</svg>
